# xmcd
# Track frame offsets:
# 150
# 16500
# 31851
# 51248
# 72100
# 85060
# 102875
# 117461
# 132613
# 146921
# 164399
# 178999
# 191779
# 211203
#
# Disc length: 2995 seconds
# Revision: 0
# Processed by: cddbd v1.5.2PL0 Copyright (c) Steve Scherf et al.
# Submitted via: VisiTrax 2.10.0.248 - For more info visit www.synapsa.com
#
DISCID=c90bb10e
DTITLE=Various Artist - Mr Music Country CD 09-06
DYEAR=2006
DGENRE=Country
TTITLE0=Jon Christopher Davis - Lone Star Attitude
TTITLE1=Joni Compretta - Long And Restless Nights
TTITLE2=Charlie Sizemore (intro: Tom T. Hall) - Old Dogs, Children And Waterme
TTITLE2=lon Wine
TTITLE3=Mary Lee - Cool Rockin' Country
TTITLE4=Kenny Harnell - Time Of My Life
TTITLE5=Gary P. Nunn - Walzt With The Devil
TTITLE6=Brian Capps - The Devil To Pay
TTITLE7=The Wilkinsons - No One's Gonna
TTITLE8=Dusty Drake - Beer Bottle Brown
TTITLE9=George Highfill - Red Satin Sheets
TTITLE10=Brit Lyng - The Flower
TTITLE11=The Tennessee Three - Mad Dog 20/20 Vision
TTITLE12=Radney Foster and Roger Creager - Luckenbach, Texas (Back To The Basic
TTITLE12=s Of Love)
TTITLE13=Amber Digby - Loser's Game
EXTD=
EXTT0=
EXTT1=
EXTT2=
EXTT3=
EXTT4=
EXTT5=
EXTT6=
EXTT7=
EXTT8=
EXTT9=
EXTT10=
EXTT11=
EXTT12=
EXTT13=
PLAYORDER=
